# xmcd CD database file
#
# Track frame offsets:
#	150
#	20622
#	43437
#	61105
#	78025
#
# Disc length: 1248 seconds
#
# Revision: 1
# Processed by: cddbd v1.5.2PL0 Copyright (c) Steve Scherf et al.
# Submitted via: CDex 1.51
#
DISCID=3604de05
DTITLE=The Sidburn Mob - The Sidburn Mob
DYEAR=1995
DGENRE=Blues
TTITLE0=Sidburn Mob
TTITLE1=Dark Hole
TTITLE2=Hit In My Head
TTITLE3=Found
TTITLE4=Stuck
EXTD=YEAR: 1995
EXTT0=
EXTT1=
EXTT2=
EXTT3=
EXTT4=
PLAYORDER=
